<mxfile host="app.diagrams.net" agent="Mozilla/5.0 (Macintosh; Intel Mac OS X 10_15_7) AppleWebKit/537.36 (KHTML, like Gecko) Chrome/131.0.0.0 Safari/537.36" version="24.9.3">
  <diagram id="C5RBs43oDa-KdzZeNtuy" name="Page-1">
    <mxGraphModel dx="1735" dy="1056" grid="0" gridSize="10" guides="0" tooltips="1" connect="1" arrows="1" fold="1" page="1" pageScale="1" pageWidth="827" pageHeight="1169" math="0" shadow="0">
      <root>
        <mxCell id="WIyWlLk6GJQsqaUBKTNV-0" />
        <mxCell id="WIyWlLk6GJQsqaUBKTNV-1" parent="WIyWlLk6GJQsqaUBKTNV-0" />
        <mxCell id="qQbIcZdgjEW8v5UKSIZu-0" value="" style="endArrow=classic;shadow=0;strokeWidth=1;rounded=0;endFill=1;elbow=vertical;exitX=1;exitY=0.5;exitDx=0;exitDy=0;entryX=0;entryY=0.5;entryDx=0;entryDy=0;" parent="WIyWlLk6GJQsqaUBKTNV-1" source="qQbIcZdgjEW8v5UKSIZu-126" target="qQbIcZdgjEW8v5UKSIZu-165" edge="1">
          <mxGeometry x="-0.0017" relative="1" as="geometry">
            <mxPoint x="545" y="922.1509433962265" as="sourcePoint" />
            <mxPoint x="754" y="983" as="targetPoint" />
            <mxPoint as="offset" />
          </mxGeometry>
        </mxCell>
        <mxCell id="qQbIcZdgjEW8v5UKSIZu-1" value="1*" style="resizable=0;align=left;verticalAlign=bottom;labelBackgroundColor=none;fontSize=12;" parent="qQbIcZdgjEW8v5UKSIZu-0" connectable="0" vertex="1">
          <mxGeometry x="-1" relative="1" as="geometry">
            <mxPoint as="offset" />
          </mxGeometry>
        </mxCell>
        <mxCell id="qQbIcZdgjEW8v5UKSIZu-2" value="talks to" style="edgeLabel;html=1;align=center;verticalAlign=middle;resizable=0;points=[];" parent="qQbIcZdgjEW8v5UKSIZu-0" vertex="1" connectable="0">
          <mxGeometry x="0.1025" y="-2" relative="1" as="geometry">
            <mxPoint x="-12" y="-1" as="offset" />
          </mxGeometry>
        </mxCell>
        <mxCell id="qQbIcZdgjEW8v5UKSIZu-3" value="interacts with" style="edgeStyle=orthogonalEdgeStyle;rounded=0;orthogonalLoop=1;jettySize=auto;html=1;exitX=0.25;exitY=0;exitDx=0;exitDy=0;entryX=0;entryY=0.5;entryDx=0;entryDy=0;" parent="WIyWlLk6GJQsqaUBKTNV-1" source="qQbIcZdgjEW8v5UKSIZu-123" target="qQbIcZdgjEW8v5UKSIZu-60" edge="1">
          <mxGeometry x="0.5645" relative="1" as="geometry">
            <mxPoint as="offset" />
          </mxGeometry>
        </mxCell>
        <mxCell id="qQbIcZdgjEW8v5UKSIZu-4" value="ED Manager" style="swimlane;fontStyle=0;align=center;verticalAlign=top;childLayout=stackLayout;horizontal=1;startSize=26;horizontalStack=0;resizeParent=1;resizeLast=0;collapsible=1;marginBottom=0;rounded=0;shadow=0;strokeWidth=1;" parent="WIyWlLk6GJQsqaUBKTNV-1" vertex="1">
          <mxGeometry x="240" y="643" width="160" height="268" as="geometry">
            <mxRectangle x="130" y="380" width="160" height="26" as="alternateBounds" />
          </mxGeometry>
        </mxCell>
        <mxCell id="qQbIcZdgjEW8v5UKSIZu-5" value="+ Name: String" style="text;align=left;verticalAlign=top;spacingLeft=4;spacingRight=4;overflow=hidden;rotatable=0;points=[[0,0.5],[1,0.5]];portConstraint=eastwest;" parent="qQbIcZdgjEW8v5UKSIZu-4" vertex="1">
          <mxGeometry y="26" width="160" height="26" as="geometry" />
        </mxCell>
        <mxCell id="qQbIcZdgjEW8v5UKSIZu-6" value="# employeeNumber: Int" style="text;align=left;verticalAlign=top;spacingLeft=4;spacingRight=4;overflow=hidden;rotatable=0;points=[[0,0.5],[1,0.5]];portConstraint=eastwest;rounded=0;shadow=0;html=0;" parent="qQbIcZdgjEW8v5UKSIZu-4" vertex="1">
          <mxGeometry y="52" width="160" height="26" as="geometry" />
        </mxCell>
        <mxCell id="qQbIcZdgjEW8v5UKSIZu-7" value="# emailAddress: String" style="text;align=left;verticalAlign=top;spacingLeft=4;spacingRight=4;overflow=hidden;rotatable=0;points=[[0,0.5],[1,0.5]];portConstraint=eastwest;rounded=0;shadow=0;html=0;" parent="qQbIcZdgjEW8v5UKSIZu-4" vertex="1">
          <mxGeometry y="78" width="160" height="26" as="geometry" />
        </mxCell>
        <mxCell id="qQbIcZdgjEW8v5UKSIZu-8" value="# phoneNumber: String" style="text;align=left;verticalAlign=top;spacingLeft=4;spacingRight=4;overflow=hidden;rotatable=0;points=[[0,0.5],[1,0.5]];portConstraint=eastwest;rounded=0;shadow=0;html=0;" parent="qQbIcZdgjEW8v5UKSIZu-4" vertex="1">
          <mxGeometry y="104" width="160" height="26" as="geometry" />
        </mxCell>
        <mxCell id="qQbIcZdgjEW8v5UKSIZu-9" value="" style="line;html=1;strokeWidth=1;align=left;verticalAlign=middle;spacingTop=-1;spacingLeft=3;spacingRight=3;rotatable=0;labelPosition=right;points=[];portConstraint=eastwest;" parent="qQbIcZdgjEW8v5UKSIZu-4" vertex="1">
          <mxGeometry y="130" width="160" height="8" as="geometry" />
        </mxCell>
        <mxCell id="qQbIcZdgjEW8v5UKSIZu-10" value="adjustEDWaitlist()&#xa;" style="text;align=left;verticalAlign=top;spacingLeft=4;spacingRight=4;overflow=hidden;rotatable=0;points=[[0,0.5],[1,0.5]];portConstraint=eastwest;" parent="qQbIcZdgjEW8v5UKSIZu-4" vertex="1">
          <mxGeometry y="138" width="160" height="26" as="geometry" />
        </mxCell>
        <mxCell id="qQbIcZdgjEW8v5UKSIZu-11" value="viewEDStatistics()&#xa;" style="text;align=left;verticalAlign=top;spacingLeft=4;spacingRight=4;overflow=hidden;rotatable=0;points=[[0,0.5],[1,0.5]];portConstraint=eastwest;" parent="qQbIcZdgjEW8v5UKSIZu-4" vertex="1">
          <mxGeometry y="164" width="160" height="26" as="geometry" />
        </mxCell>
        <mxCell id="qQbIcZdgjEW8v5UKSIZu-12" value="reorganizeAppointments()" style="text;align=left;verticalAlign=top;spacingLeft=4;spacingRight=4;overflow=hidden;rotatable=0;points=[[0,0.5],[1,0.5]];portConstraint=eastwest;" parent="qQbIcZdgjEW8v5UKSIZu-4" vertex="1">
          <mxGeometry y="190" width="160" height="26" as="geometry" />
        </mxCell>
        <mxCell id="qQbIcZdgjEW8v5UKSIZu-13" value="toggleWaitRoomCapacity()" style="text;align=left;verticalAlign=top;spacingLeft=4;spacingRight=4;overflow=hidden;rotatable=0;points=[[0,0.5],[1,0.5]];portConstraint=eastwest;" parent="qQbIcZdgjEW8v5UKSIZu-4" vertex="1">
          <mxGeometry y="216" width="160" height="26" as="geometry" />
        </mxCell>
        <mxCell id="qQbIcZdgjEW8v5UKSIZu-14" value="..." style="text;align=left;verticalAlign=top;spacingLeft=4;spacingRight=4;overflow=hidden;rotatable=0;points=[[0,0.5],[1,0.5]];portConstraint=eastwest;" parent="qQbIcZdgjEW8v5UKSIZu-4" vertex="1">
          <mxGeometry y="242" width="160" height="26" as="geometry" />
        </mxCell>
        <mxCell id="qQbIcZdgjEW8v5UKSIZu-15" style="edgeStyle=orthogonalEdgeStyle;rounded=0;orthogonalLoop=1;jettySize=auto;html=1;entryX=0.5;entryY=1;entryDx=0;entryDy=0;" parent="WIyWlLk6GJQsqaUBKTNV-1" source="qQbIcZdgjEW8v5UKSIZu-163" target="qQbIcZdgjEW8v5UKSIZu-56" edge="1">
          <mxGeometry relative="1" as="geometry">
            <mxPoint x="750" y="814" as="targetPoint" />
            <Array as="points">
              <mxPoint x="839" y="851" />
              <mxPoint x="782" y="851" />
            </Array>
          </mxGeometry>
        </mxCell>
        <mxCell id="qQbIcZdgjEW8v5UKSIZu-16" value="interacts&lt;div&gt;with&lt;/div&gt;" style="edgeLabel;html=1;align=center;verticalAlign=middle;resizable=0;points=[];" parent="qQbIcZdgjEW8v5UKSIZu-15" vertex="1" connectable="0">
          <mxGeometry x="0.1288" y="1" relative="1" as="geometry">
            <mxPoint x="9" y="1" as="offset" />
          </mxGeometry>
        </mxCell>
        <mxCell id="qQbIcZdgjEW8v5UKSIZu-17" value="interacts with" style="edgeStyle=orthogonalEdgeStyle;rounded=0;orthogonalLoop=1;jettySize=auto;html=1;entryX=0;entryY=0.5;entryDx=0;entryDy=0;" parent="WIyWlLk6GJQsqaUBKTNV-1" target="qQbIcZdgjEW8v5UKSIZu-57" edge="1">
          <mxGeometry x="0.3889" relative="1" as="geometry">
            <mxPoint x="165" y="1258" as="sourcePoint" />
            <mxPoint as="offset" />
          </mxGeometry>
        </mxCell>
        <mxCell id="qQbIcZdgjEW8v5UKSIZu-18" value="manages" style="edgeStyle=orthogonalEdgeStyle;rounded=0;orthogonalLoop=1;jettySize=auto;html=1;exitX=1;exitY=0.5;exitDx=0;exitDy=0;entryX=0;entryY=0.5;entryDx=0;entryDy=0;" parent="WIyWlLk6GJQsqaUBKTNV-1" source="qQbIcZdgjEW8v5UKSIZu-13" target="qQbIcZdgjEW8v5UKSIZu-126" edge="1">
          <mxGeometry relative="1" as="geometry" />
        </mxCell>
        <mxCell id="qQbIcZdgjEW8v5UKSIZu-19" value="1*" style="text;strokeColor=none;align=center;fillColor=none;html=1;verticalAlign=middle;whiteSpace=wrap;rounded=0;" parent="WIyWlLk6GJQsqaUBKTNV-1" vertex="1">
          <mxGeometry x="379" y="660" width="60" height="30" as="geometry" />
        </mxCell>
        <mxCell id="qQbIcZdgjEW8v5UKSIZu-20" value="1" style="text;strokeColor=none;align=center;fillColor=none;html=1;verticalAlign=middle;whiteSpace=wrap;rounded=0;" parent="WIyWlLk6GJQsqaUBKTNV-1" vertex="1">
          <mxGeometry x="376" y="847" width="60" height="30" as="geometry" />
        </mxCell>
        <mxCell id="qQbIcZdgjEW8v5UKSIZu-21" value="" style="rounded=0;whiteSpace=wrap;html=1;strokeColor=none;" parent="WIyWlLk6GJQsqaUBKTNV-1" vertex="1">
          <mxGeometry x="127" y="1355" width="120" height="60" as="geometry" />
        </mxCell>
        <mxCell id="qQbIcZdgjEW8v5UKSIZu-22" style="edgeStyle=orthogonalEdgeStyle;rounded=0;orthogonalLoop=1;jettySize=auto;html=1;entryX=0.5;entryY=1;entryDx=0;entryDy=0;" parent="WIyWlLk6GJQsqaUBKTNV-1" source="qQbIcZdgjEW8v5UKSIZu-24" target="qQbIcZdgjEW8v5UKSIZu-123" edge="1">
          <mxGeometry relative="1" as="geometry">
            <Array as="points">
              <mxPoint x="438" y="1294" />
              <mxPoint x="557" y="1294" />
            </Array>
          </mxGeometry>
        </mxCell>
        <mxCell id="qQbIcZdgjEW8v5UKSIZu-23" value="handles" style="edgeLabel;html=1;align=center;verticalAlign=middle;resizable=0;points=[];" parent="qQbIcZdgjEW8v5UKSIZu-22" vertex="1" connectable="0">
          <mxGeometry x="-0.3537" y="2" relative="1" as="geometry">
            <mxPoint x="36" y="1" as="offset" />
          </mxGeometry>
        </mxCell>
        <mxCell id="qQbIcZdgjEW8v5UKSIZu-24" value="ResponsibiltyChain.TriageHandler" style="swimlane;fontStyle=0;align=center;verticalAlign=top;childLayout=stackLayout;horizontal=1;startSize=26;horizontalStack=0;resizeParent=1;resizeLast=0;collapsible=1;marginBottom=0;rounded=0;shadow=0;strokeWidth=1;" parent="WIyWlLk6GJQsqaUBKTNV-1" vertex="1">
          <mxGeometry x="430" y="1310" width="220" height="112" as="geometry">
            <mxRectangle x="550" y="140" width="160" height="26" as="alternateBounds" />
          </mxGeometry>
        </mxCell>
        <mxCell id="qQbIcZdgjEW8v5UKSIZu-25" value="# nextHandler: TriageHandler" style="text;align=left;verticalAlign=top;spacingLeft=4;spacingRight=4;overflow=hidden;rotatable=0;points=[[0,0.5],[1,0.5]];portConstraint=eastwest;rounded=0;shadow=0;html=0;" parent="qQbIcZdgjEW8v5UKSIZu-24" vertex="1">
          <mxGeometry y="26" width="220" height="26" as="geometry" />
        </mxCell>
        <mxCell id="qQbIcZdgjEW8v5UKSIZu-26" value="" style="line;html=1;strokeWidth=1;align=left;verticalAlign=middle;spacingTop=-1;spacingLeft=3;spacingRight=3;rotatable=0;labelPosition=right;points=[];portConstraint=eastwest;" parent="qQbIcZdgjEW8v5UKSIZu-24" vertex="1">
          <mxGeometry y="52" width="220" height="8" as="geometry" />
        </mxCell>
        <mxCell id="qQbIcZdgjEW8v5UKSIZu-27" value="setNextHandler()" style="text;align=left;verticalAlign=top;spacingLeft=4;spacingRight=4;overflow=hidden;rotatable=0;points=[[0,0.5],[1,0.5]];portConstraint=eastwest;" parent="qQbIcZdgjEW8v5UKSIZu-24" vertex="1">
          <mxGeometry y="60" width="220" height="26" as="geometry" />
        </mxCell>
        <mxCell id="qQbIcZdgjEW8v5UKSIZu-28" value="handleRequest()" style="text;align=left;verticalAlign=top;spacingLeft=4;spacingRight=4;overflow=hidden;rotatable=0;points=[[0,0.5],[1,0.5]];portConstraint=eastwest;" parent="qQbIcZdgjEW8v5UKSIZu-24" vertex="1">
          <mxGeometry y="86" width="220" height="26" as="geometry" />
        </mxCell>
        <mxCell id="qQbIcZdgjEW8v5UKSIZu-29" value="" style="group" parent="WIyWlLk6GJQsqaUBKTNV-1" vertex="1" connectable="0">
          <mxGeometry x="110" y="1234" width="256" height="215" as="geometry" />
        </mxCell>
        <mxCell id="qQbIcZdgjEW8v5UKSIZu-30" value="" style="group" parent="qQbIcZdgjEW8v5UKSIZu-29" vertex="1" connectable="0">
          <mxGeometry width="220" height="215" as="geometry" />
        </mxCell>
        <mxCell id="qQbIcZdgjEW8v5UKSIZu-31" value="General Practitioner" style="swimlane;fontStyle=0;align=center;verticalAlign=top;childLayout=stackLayout;horizontal=1;startSize=26;horizontalStack=0;resizeParent=1;resizeLast=0;collapsible=1;marginBottom=0;rounded=0;shadow=0;strokeWidth=1;" parent="qQbIcZdgjEW8v5UKSIZu-30" vertex="1">
          <mxGeometry y="24" width="220" height="216" as="geometry">
            <mxRectangle x="550" y="140" width="160" height="26" as="alternateBounds" />
          </mxGeometry>
        </mxCell>
        <mxCell id="qQbIcZdgjEW8v5UKSIZu-32" value="# phoneNumber: String" style="text;align=left;verticalAlign=top;spacingLeft=4;spacingRight=4;overflow=hidden;rotatable=0;points=[[0,0.5],[1,0.5]];portConstraint=eastwest;rounded=0;shadow=0;html=0;" parent="qQbIcZdgjEW8v5UKSIZu-31" vertex="1">
          <mxGeometry y="26" width="220" height="26" as="geometry" />
        </mxCell>
        <mxCell id="qQbIcZdgjEW8v5UKSIZu-33" value="+ Name: String" style="text;align=left;verticalAlign=top;spacingLeft=4;spacingRight=4;overflow=hidden;rotatable=0;points=[[0,0.5],[1,0.5]];portConstraint=eastwest;" parent="qQbIcZdgjEW8v5UKSIZu-31" vertex="1">
          <mxGeometry y="52" width="220" height="26" as="geometry" />
        </mxCell>
        <mxCell id="qQbIcZdgjEW8v5UKSIZu-34" value="# emailAddress: String" style="text;align=left;verticalAlign=top;spacingLeft=4;spacingRight=4;overflow=hidden;rotatable=0;points=[[0,0.5],[1,0.5]];portConstraint=eastwest;rounded=0;shadow=0;html=0;" parent="qQbIcZdgjEW8v5UKSIZu-31" vertex="1">
          <mxGeometry y="78" width="220" height="26" as="geometry" />
        </mxCell>
        <mxCell id="qQbIcZdgjEW8v5UKSIZu-35" value="# employeeNumber: Int" style="text;align=left;verticalAlign=top;spacingLeft=4;spacingRight=4;overflow=hidden;rotatable=0;points=[[0,0.5],[1,0.5]];portConstraint=eastwest;rounded=0;shadow=0;html=0;" parent="qQbIcZdgjEW8v5UKSIZu-31" vertex="1">
          <mxGeometry y="104" width="220" height="26" as="geometry" />
        </mxCell>
        <mxCell id="qQbIcZdgjEW8v5UKSIZu-36" value="" style="line;html=1;strokeWidth=1;align=left;verticalAlign=middle;spacingTop=-1;spacingLeft=3;spacingRight=3;rotatable=0;labelPosition=right;points=[];portConstraint=eastwest;" parent="qQbIcZdgjEW8v5UKSIZu-31" vertex="1">
          <mxGeometry y="130" width="220" height="8" as="geometry" />
        </mxCell>
        <mxCell id="qQbIcZdgjEW8v5UKSIZu-37" value="approveMrEDPatientAppointment()" style="text;align=left;verticalAlign=top;spacingLeft=4;spacingRight=4;overflow=hidden;rotatable=0;points=[[0,0.5],[1,0.5]];portConstraint=eastwest;" parent="qQbIcZdgjEW8v5UKSIZu-31" vertex="1">
          <mxGeometry y="138" width="220" height="26" as="geometry" />
        </mxCell>
        <mxCell id="qQbIcZdgjEW8v5UKSIZu-38" value="overideERPatientSchedule()" style="text;align=left;verticalAlign=top;spacingLeft=4;spacingRight=4;overflow=hidden;rotatable=0;points=[[0,0.5],[1,0.5]];portConstraint=eastwest;" parent="qQbIcZdgjEW8v5UKSIZu-31" vertex="1">
          <mxGeometry y="164" width="220" height="26" as="geometry" />
        </mxCell>
        <mxCell id="qQbIcZdgjEW8v5UKSIZu-39" value="..." style="text;align=left;verticalAlign=top;spacingLeft=4;spacingRight=4;overflow=hidden;rotatable=0;points=[[0,0.5],[1,0.5]];portConstraint=eastwest;" parent="qQbIcZdgjEW8v5UKSIZu-31" vertex="1">
          <mxGeometry y="190" width="220" height="26" as="geometry" />
        </mxCell>
        <mxCell id="qQbIcZdgjEW8v5UKSIZu-40" value="1*" style="text;strokeColor=none;align=center;fillColor=none;html=1;verticalAlign=middle;whiteSpace=wrap;rounded=0;" parent="qQbIcZdgjEW8v5UKSIZu-30" vertex="1">
          <mxGeometry x="18" y="2" width="60" height="30" as="geometry" />
        </mxCell>
        <mxCell id="qQbIcZdgjEW8v5UKSIZu-41" value="1" style="text;strokeColor=none;align=center;fillColor=none;html=1;verticalAlign=middle;whiteSpace=wrap;rounded=0;" parent="qQbIcZdgjEW8v5UKSIZu-30" vertex="1">
          <mxGeometry x="85" y="2" width="60" height="30" as="geometry" />
        </mxCell>
        <mxCell id="qQbIcZdgjEW8v5UKSIZu-42" value="1*" style="text;html=1;align=center;verticalAlign=middle;resizable=0;points=[];autosize=1;strokeColor=none;fillColor=none;" parent="qQbIcZdgjEW8v5UKSIZu-29" vertex="1">
          <mxGeometry x="211" y="155" width="29" height="26" as="geometry" />
        </mxCell>
        <mxCell id="qQbIcZdgjEW8v5UKSIZu-43" style="rounded=0;orthogonalLoop=1;jettySize=auto;html=1;exitX=1;exitY=0.5;exitDx=0;exitDy=0;entryX=0;entryY=0.5;entryDx=0;entryDy=0;edgeStyle=orthogonalEdgeStyle;" parent="WIyWlLk6GJQsqaUBKTNV-1" source="qQbIcZdgjEW8v5UKSIZu-25" target="qQbIcZdgjEW8v5UKSIZu-173" edge="1">
          <mxGeometry relative="1" as="geometry">
            <mxPoint x="754" y="1117" as="targetPoint" />
          </mxGeometry>
        </mxCell>
        <mxCell id="qQbIcZdgjEW8v5UKSIZu-44" value="delegates&lt;div&gt;patient to&lt;/div&gt;" style="edgeLabel;html=1;align=center;verticalAlign=middle;resizable=0;points=[];" parent="qQbIcZdgjEW8v5UKSIZu-43" vertex="1" connectable="0">
          <mxGeometry x="-0.1539" y="2" relative="1" as="geometry">
            <mxPoint x="-1" y="-44" as="offset" />
          </mxGeometry>
        </mxCell>
        <mxCell id="qQbIcZdgjEW8v5UKSIZu-45" style="edgeStyle=orthogonalEdgeStyle;rounded=0;orthogonalLoop=1;jettySize=auto;html=1;entryX=0;entryY=0.5;entryDx=0;entryDy=0;" parent="WIyWlLk6GJQsqaUBKTNV-1" source="qQbIcZdgjEW8v5UKSIZu-31" target="qQbIcZdgjEW8v5UKSIZu-134" edge="1">
          <mxGeometry relative="1" as="geometry" />
        </mxCell>
        <mxCell id="qQbIcZdgjEW8v5UKSIZu-46" value="attends to" style="edgeLabel;html=1;align=center;verticalAlign=middle;resizable=0;points=[];" parent="qQbIcZdgjEW8v5UKSIZu-45" vertex="1" connectable="0">
          <mxGeometry x="0.0368" relative="1" as="geometry">
            <mxPoint as="offset" />
          </mxGeometry>
        </mxCell>
        <mxCell id="qQbIcZdgjEW8v5UKSIZu-47" style="rounded=0;orthogonalLoop=1;jettySize=auto;html=1;entryX=1;entryY=0.5;entryDx=0;entryDy=0;exitX=0;exitY=0.5;exitDx=0;exitDy=0;" parent="WIyWlLk6GJQsqaUBKTNV-1" source="qQbIcZdgjEW8v5UKSIZu-28" target="qQbIcZdgjEW8v5UKSIZu-37" edge="1">
          <mxGeometry relative="1" as="geometry" />
        </mxCell>
        <mxCell id="qQbIcZdgjEW8v5UKSIZu-48" value="delegates&lt;div&gt;patient to&lt;/div&gt;" style="edgeLabel;html=1;align=center;verticalAlign=middle;resizable=0;points=[];" parent="qQbIcZdgjEW8v5UKSIZu-47" vertex="1" connectable="0">
          <mxGeometry x="0.0171" y="-1" relative="1" as="geometry">
            <mxPoint as="offset" />
          </mxGeometry>
        </mxCell>
        <mxCell id="qQbIcZdgjEW8v5UKSIZu-49" style="edgeStyle=orthogonalEdgeStyle;rounded=0;orthogonalLoop=1;jettySize=auto;html=1;entryX=0.75;entryY=1;entryDx=0;entryDy=0;" parent="WIyWlLk6GJQsqaUBKTNV-1" source="qQbIcZdgjEW8v5UKSIZu-25" target="qQbIcZdgjEW8v5UKSIZu-4" edge="1">
          <mxGeometry relative="1" as="geometry">
            <mxPoint x="381.22229498785896" y="870.9007411647488" as="targetPoint" />
          </mxGeometry>
        </mxCell>
        <mxCell id="qQbIcZdgjEW8v5UKSIZu-50" value="delegates&lt;div&gt;patient to&lt;/div&gt;" style="edgeLabel;html=1;align=center;verticalAlign=middle;resizable=0;points=[];" parent="qQbIcZdgjEW8v5UKSIZu-49" vertex="1" connectable="0">
          <mxGeometry x="-0.8605" y="-4" relative="1" as="geometry">
            <mxPoint x="-17" y="-38" as="offset" />
          </mxGeometry>
        </mxCell>
        <mxCell id="qQbIcZdgjEW8v5UKSIZu-55" value="" style="group" parent="WIyWlLk6GJQsqaUBKTNV-1" vertex="1" connectable="0">
          <mxGeometry x="632" y="592" width="255" height="216" as="geometry" />
        </mxCell>
        <mxCell id="qQbIcZdgjEW8v5UKSIZu-56" value="Mr. ED Main" style="swimlane;fontStyle=0;align=center;verticalAlign=top;childLayout=stackLayout;horizontal=1;startSize=26;horizontalStack=0;resizeParent=1;resizeLast=0;collapsible=1;marginBottom=0;rounded=0;shadow=0;strokeWidth=1;" parent="qQbIcZdgjEW8v5UKSIZu-55" vertex="1">
          <mxGeometry x="45" width="210" height="216" as="geometry">
            <mxRectangle x="550" y="140" width="160" height="26" as="alternateBounds" />
          </mxGeometry>
        </mxCell>
        <mxCell id="qQbIcZdgjEW8v5UKSIZu-57" value="# Waitlists: Array " style="text;align=left;verticalAlign=top;spacingLeft=4;spacingRight=4;overflow=hidden;rotatable=0;points=[[0,0.5],[1,0.5]];portConstraint=eastwest;rounded=0;shadow=0;html=0;" parent="qQbIcZdgjEW8v5UKSIZu-56" vertex="1">
          <mxGeometry y="26" width="210" height="26" as="geometry" />
        </mxCell>
        <mxCell id="qQbIcZdgjEW8v5UKSIZu-58" value="# AverageWaitLengths: Array " style="text;align=left;verticalAlign=top;spacingLeft=4;spacingRight=4;overflow=hidden;rotatable=0;points=[[0,0.5],[1,0.5]];portConstraint=eastwest;rounded=0;shadow=0;html=0;" parent="qQbIcZdgjEW8v5UKSIZu-56" vertex="1">
          <mxGeometry y="52" width="210" height="26" as="geometry" />
        </mxCell>
        <mxCell id="qQbIcZdgjEW8v5UKSIZu-59" value="# HospitalEmployees: Array " style="text;align=left;verticalAlign=top;spacingLeft=4;spacingRight=4;overflow=hidden;rotatable=0;points=[[0,0.5],[1,0.5]];portConstraint=eastwest;rounded=0;shadow=0;html=0;" parent="qQbIcZdgjEW8v5UKSIZu-56" vertex="1">
          <mxGeometry y="78" width="210" height="26" as="geometry" />
        </mxCell>
        <mxCell id="qQbIcZdgjEW8v5UKSIZu-60" value="# Hospitals: Array " style="text;align=left;verticalAlign=top;spacingLeft=4;spacingRight=4;overflow=hidden;rotatable=0;points=[[0,0.5],[1,0.5]];portConstraint=eastwest;rounded=0;shadow=0;html=0;" parent="qQbIcZdgjEW8v5UKSIZu-56" vertex="1">
          <mxGeometry y="104" width="210" height="26" as="geometry" />
        </mxCell>
        <mxCell id="qQbIcZdgjEW8v5UKSIZu-61" value="" style="line;html=1;strokeWidth=1;align=left;verticalAlign=middle;spacingTop=-1;spacingLeft=3;spacingRight=3;rotatable=0;labelPosition=right;points=[];portConstraint=eastwest;" parent="qQbIcZdgjEW8v5UKSIZu-56" vertex="1">
          <mxGeometry y="130" width="210" height="8" as="geometry" />
        </mxCell>
        <mxCell id="qQbIcZdgjEW8v5UKSIZu-62" value="schedulePractitionerAppointments()" style="text;align=left;verticalAlign=top;spacingLeft=4;spacingRight=4;overflow=hidden;rotatable=0;points=[[0,0.5],[1,0.5]];portConstraint=eastwest;" parent="qQbIcZdgjEW8v5UKSIZu-56" vertex="1">
          <mxGeometry y="138" width="210" height="26" as="geometry" />
        </mxCell>
        <mxCell id="qQbIcZdgjEW8v5UKSIZu-63" value="trackEDStatistics()&#xa;" style="text;align=left;verticalAlign=top;spacingLeft=4;spacingRight=4;overflow=hidden;rotatable=0;points=[[0,0.5],[1,0.5]];portConstraint=eastwest;" parent="qQbIcZdgjEW8v5UKSIZu-56" vertex="1">
          <mxGeometry y="164" width="210" height="26" as="geometry" />
        </mxCell>
        <mxCell id="qQbIcZdgjEW8v5UKSIZu-64" value="..." style="text;align=left;verticalAlign=top;spacingLeft=4;spacingRight=4;overflow=hidden;rotatable=0;points=[[0,0.5],[1,0.5]];portConstraint=eastwest;" parent="qQbIcZdgjEW8v5UKSIZu-56" vertex="1">
          <mxGeometry y="190" width="210" height="26" as="geometry" />
        </mxCell>
        <mxCell id="qQbIcZdgjEW8v5UKSIZu-65" value="1" style="text;strokeColor=none;align=center;fillColor=none;html=1;verticalAlign=middle;whiteSpace=wrap;rounded=0;" parent="qQbIcZdgjEW8v5UKSIZu-55" vertex="1">
          <mxGeometry y="17" width="60" height="30" as="geometry" />
        </mxCell>
        <mxCell id="qQbIcZdgjEW8v5UKSIZu-66" value="1" style="text;strokeColor=none;align=center;fillColor=none;html=1;verticalAlign=middle;whiteSpace=wrap;rounded=0;" parent="qQbIcZdgjEW8v5UKSIZu-55" vertex="1">
          <mxGeometry x="2" y="96" width="60" height="30" as="geometry" />
        </mxCell>
        <mxCell id="qQbIcZdgjEW8v5UKSIZu-67" value="1" style="text;strokeColor=none;align=center;fillColor=none;html=1;verticalAlign=middle;whiteSpace=wrap;rounded=0;" parent="qQbIcZdgjEW8v5UKSIZu-55" vertex="1">
          <mxGeometry x="2" y="67" width="60" height="30" as="geometry" />
        </mxCell>
        <mxCell id="qQbIcZdgjEW8v5UKSIZu-68" style="edgeStyle=orthogonalEdgeStyle;rounded=0;orthogonalLoop=1;jettySize=auto;html=1;exitX=1;exitY=0.5;exitDx=0;exitDy=0;" parent="WIyWlLk6GJQsqaUBKTNV-1" source="qQbIcZdgjEW8v5UKSIZu-5" target="qQbIcZdgjEW8v5UKSIZu-59" edge="1">
          <mxGeometry relative="1" as="geometry" />
        </mxCell>
        <mxCell id="qQbIcZdgjEW8v5UKSIZu-69" value="interacts with" style="edgeLabel;html=1;align=center;verticalAlign=middle;resizable=0;points=[];" parent="qQbIcZdgjEW8v5UKSIZu-68" vertex="1" connectable="0">
          <mxGeometry x="0.0227" y="2" relative="1" as="geometry">
            <mxPoint as="offset" />
          </mxGeometry>
        </mxCell>
        <mxCell id="qQbIcZdgjEW8v5UKSIZu-105" style="edgeStyle=orthogonalEdgeStyle;rounded=0;orthogonalLoop=1;jettySize=auto;html=1;entryX=0.75;entryY=0;entryDx=0;entryDy=0;" parent="WIyWlLk6GJQsqaUBKTNV-1" source="qQbIcZdgjEW8v5UKSIZu-107" target="qQbIcZdgjEW8v5UKSIZu-56" edge="1">
          <mxGeometry relative="1" as="geometry" />
        </mxCell>
        <mxCell id="qQbIcZdgjEW8v5UKSIZu-106" value="provides&lt;div&gt;info to&lt;/div&gt;" style="edgeLabel;html=1;align=center;verticalAlign=middle;resizable=0;points=[];" parent="qQbIcZdgjEW8v5UKSIZu-105" vertex="1" connectable="0">
          <mxGeometry x="-0.1602" y="-2" relative="1" as="geometry">
            <mxPoint x="-12" as="offset" />
          </mxGeometry>
        </mxCell>
        <mxCell id="qQbIcZdgjEW8v5UKSIZu-107" value="HospitalLocalizer" style="swimlane;fontStyle=0;align=center;verticalAlign=top;childLayout=stackLayout;horizontal=1;startSize=26;horizontalStack=0;resizeParent=1;resizeLast=0;collapsible=1;marginBottom=0;rounded=0;shadow=0;strokeWidth=1;" parent="WIyWlLk6GJQsqaUBKTNV-1" vertex="1">
          <mxGeometry x="809" y="303" width="220" height="164" as="geometry">
            <mxRectangle x="550" y="140" width="160" height="26" as="alternateBounds" />
          </mxGeometry>
        </mxCell>
        <mxCell id="qQbIcZdgjEW8v5UKSIZu-108" value="- userLatitude: String" style="text;align=left;verticalAlign=top;spacingLeft=4;spacingRight=4;overflow=hidden;rotatable=0;points=[[0,0.5],[1,0.5]];portConstraint=eastwest;rounded=0;shadow=0;html=0;" parent="qQbIcZdgjEW8v5UKSIZu-107" vertex="1">
          <mxGeometry y="26" width="220" height="26" as="geometry" />
        </mxCell>
        <mxCell id="qQbIcZdgjEW8v5UKSIZu-109" value="- userLongitude: String" style="text;align=left;verticalAlign=top;spacingLeft=4;spacingRight=4;overflow=hidden;rotatable=0;points=[[0,0.5],[1,0.5]];portConstraint=eastwest;rounded=0;shadow=0;html=0;" parent="qQbIcZdgjEW8v5UKSIZu-107" vertex="1">
          <mxGeometry y="52" width="220" height="26" as="geometry" />
        </mxCell>
        <mxCell id="qQbIcZdgjEW8v5UKSIZu-110" value="" style="line;html=1;strokeWidth=1;align=left;verticalAlign=middle;spacingTop=-1;spacingLeft=3;spacingRight=3;rotatable=0;labelPosition=right;points=[];portConstraint=eastwest;" parent="qQbIcZdgjEW8v5UKSIZu-107" vertex="1">
          <mxGeometry y="78" width="220" height="8" as="geometry" />
        </mxCell>
        <mxCell id="qQbIcZdgjEW8v5UKSIZu-111" value="getUserLatitude()" style="text;align=left;verticalAlign=top;spacingLeft=4;spacingRight=4;overflow=hidden;rotatable=0;points=[[0,0.5],[1,0.5]];portConstraint=eastwest;" parent="qQbIcZdgjEW8v5UKSIZu-107" vertex="1">
          <mxGeometry y="86" width="220" height="26" as="geometry" />
        </mxCell>
        <mxCell id="qQbIcZdgjEW8v5UKSIZu-112" value="getUserLongitude()" style="text;align=left;verticalAlign=top;spacingLeft=4;spacingRight=4;overflow=hidden;rotatable=0;points=[[0,0.5],[1,0.5]];portConstraint=eastwest;" parent="qQbIcZdgjEW8v5UKSIZu-107" vertex="1">
          <mxGeometry y="112" width="220" height="26" as="geometry" />
        </mxCell>
        <mxCell id="qQbIcZdgjEW8v5UKSIZu-113" value="getDistanceBetweenCoordinates()" style="text;align=left;verticalAlign=top;spacingLeft=4;spacingRight=4;overflow=hidden;rotatable=0;points=[[0,0.5],[1,0.5]];portConstraint=eastwest;" parent="qQbIcZdgjEW8v5UKSIZu-107" vertex="1">
          <mxGeometry y="138" width="220" height="26" as="geometry" />
        </mxCell>
        <mxCell id="qQbIcZdgjEW8v5UKSIZu-116" value="1" style="text;html=1;align=center;verticalAlign=middle;resizable=0;points=[];autosize=1;strokeColor=none;fillColor=none;" parent="WIyWlLk6GJQsqaUBKTNV-1" vertex="1">
          <mxGeometry x="901" y="462" width="25" height="26" as="geometry" />
        </mxCell>
        <mxCell id="qQbIcZdgjEW8v5UKSIZu-121" value="1" style="text;html=1;align=center;verticalAlign=middle;resizable=0;points=[];autosize=1;strokeColor=none;fillColor=none;" parent="WIyWlLk6GJQsqaUBKTNV-1" vertex="1">
          <mxGeometry x="813" y="573" width="25" height="26" as="geometry" />
        </mxCell>
        <mxCell id="qQbIcZdgjEW8v5UKSIZu-122" value="" style="group" parent="WIyWlLk6GJQsqaUBKTNV-1" vertex="1" connectable="0">
          <mxGeometry x="419" y="870" width="233" height="376" as="geometry" />
        </mxCell>
        <mxCell id="qQbIcZdgjEW8v5UKSIZu-123" value="Patient" style="swimlane;fontStyle=2;align=center;verticalAlign=top;childLayout=stackLayout;horizontal=1;startSize=26;horizontalStack=0;resizeParent=1;resizeLast=0;collapsible=1;marginBottom=0;rounded=0;shadow=0;strokeWidth=1;" parent="qQbIcZdgjEW8v5UKSIZu-122" vertex="1">
          <mxGeometry x="43" y="22" width="190" height="380" as="geometry">
            <mxRectangle x="30" y="30" width="160" height="26" as="alternateBounds" />
          </mxGeometry>
        </mxCell>
        <mxCell id="qQbIcZdgjEW8v5UKSIZu-124" value="+ name: String" style="text;align=left;verticalAlign=top;spacingLeft=4;spacingRight=4;overflow=hidden;rotatable=0;points=[[0,0.5],[1,0.5]];portConstraint=eastwest;" parent="qQbIcZdgjEW8v5UKSIZu-123" vertex="1">
          <mxGeometry y="26" width="190" height="26" as="geometry" />
        </mxCell>
        <mxCell id="qQbIcZdgjEW8v5UKSIZu-125" value="# phoneNumber: String" style="text;align=left;verticalAlign=top;spacingLeft=4;spacingRight=4;overflow=hidden;rotatable=0;points=[[0,0.5],[1,0.5]];portConstraint=eastwest;rounded=0;shadow=0;html=0;" parent="qQbIcZdgjEW8v5UKSIZu-123" vertex="1">
          <mxGeometry y="52" width="190" height="26" as="geometry" />
        </mxCell>
        <mxCell id="qQbIcZdgjEW8v5UKSIZu-126" value="# emailAddress: String" style="text;align=left;verticalAlign=top;spacingLeft=4;spacingRight=4;overflow=hidden;rotatable=0;points=[[0,0.5],[1,0.5]];portConstraint=eastwest;rounded=0;shadow=0;html=0;" parent="qQbIcZdgjEW8v5UKSIZu-123" vertex="1">
          <mxGeometry y="78" width="190" height="26" as="geometry" />
        </mxCell>
        <mxCell id="qQbIcZdgjEW8v5UKSIZu-127" value="# birthDate: Date" style="text;align=left;verticalAlign=top;spacingLeft=4;spacingRight=4;overflow=hidden;rotatable=0;points=[[0,0.5],[1,0.5]];portConstraint=eastwest;" parent="qQbIcZdgjEW8v5UKSIZu-123" vertex="1">
          <mxGeometry y="104" width="190" height="26" as="geometry" />
        </mxCell>
        <mxCell id="qQbIcZdgjEW8v5UKSIZu-128" value="- personalHealthNumber: Int" style="text;align=left;verticalAlign=top;spacingLeft=4;spacingRight=4;overflow=hidden;rotatable=0;points=[[0,0.5],[1,0.5]];portConstraint=eastwest;" parent="qQbIcZdgjEW8v5UKSIZu-123" vertex="1">
          <mxGeometry y="130" width="190" height="26" as="geometry" />
        </mxCell>
        <mxCell id="qQbIcZdgjEW8v5UKSIZu-129" value="" style="line;html=1;strokeWidth=1;align=left;verticalAlign=middle;spacingTop=-1;spacingLeft=3;spacingRight=3;rotatable=0;labelPosition=right;points=[];portConstraint=eastwest;" parent="qQbIcZdgjEW8v5UKSIZu-123" vertex="1">
          <mxGeometry y="156" width="190" height="16" as="geometry" />
        </mxCell>
        <mxCell id="qQbIcZdgjEW8v5UKSIZu-130" value="callNurseHotline()" style="text;align=left;verticalAlign=top;spacingLeft=4;spacingRight=4;overflow=hidden;rotatable=0;points=[[0,0.5],[1,0.5]];portConstraint=eastwest;" parent="qQbIcZdgjEW8v5UKSIZu-123" vertex="1">
          <mxGeometry y="172" width="190" height="26" as="geometry" />
        </mxCell>
        <mxCell id="qQbIcZdgjEW8v5UKSIZu-131" value="provideCallSummary()&#xa;" style="text;align=left;verticalAlign=top;spacingLeft=4;spacingRight=4;overflow=hidden;rotatable=0;points=[[0,0.5],[1,0.5]];portConstraint=eastwest;" parent="qQbIcZdgjEW8v5UKSIZu-123" vertex="1">
          <mxGeometry y="198" width="190" height="26" as="geometry" />
        </mxCell>
        <mxCell id="qQbIcZdgjEW8v5UKSIZu-132" value="viewNearbyHospitals()&#xa;" style="text;align=left;verticalAlign=top;spacingLeft=4;spacingRight=4;overflow=hidden;rotatable=0;points=[[0,0.5],[1,0.5]];portConstraint=eastwest;" parent="qQbIcZdgjEW8v5UKSIZu-123" vertex="1">
          <mxGeometry y="224" width="190" height="26" as="geometry" />
        </mxCell>
        <mxCell id="qQbIcZdgjEW8v5UKSIZu-133" value="registerForVirtualTriage()&#xa;" style="text;align=left;verticalAlign=top;spacingLeft=4;spacingRight=4;overflow=hidden;rotatable=0;points=[[0,0.5],[1,0.5]];portConstraint=eastwest;" parent="qQbIcZdgjEW8v5UKSIZu-123" vertex="1">
          <mxGeometry y="250" width="190" height="26" as="geometry" />
        </mxCell>
        <mxCell id="qQbIcZdgjEW8v5UKSIZu-134" value="join&amp;ViewWaitlist()&#xa;" style="text;align=left;verticalAlign=top;spacingLeft=4;spacingRight=4;overflow=hidden;rotatable=0;points=[[0,0.5],[1,0.5]];portConstraint=eastwest;" parent="qQbIcZdgjEW8v5UKSIZu-123" vertex="1">
          <mxGeometry y="276" width="190" height="26" as="geometry" />
        </mxCell>
        <mxCell id="qQbIcZdgjEW8v5UKSIZu-135" value="leaveWaitlist()&#xa;" style="text;align=left;verticalAlign=top;spacingLeft=4;spacingRight=4;overflow=hidden;rotatable=0;points=[[0,0.5],[1,0.5]];portConstraint=eastwest;" parent="qQbIcZdgjEW8v5UKSIZu-123" vertex="1">
          <mxGeometry y="302" width="190" height="26" as="geometry" />
        </mxCell>
        <mxCell id="qQbIcZdgjEW8v5UKSIZu-136" value="clone()" style="text;align=left;verticalAlign=top;spacingLeft=4;spacingRight=4;overflow=hidden;rotatable=0;points=[[0,0.5],[1,0.5]];portConstraint=eastwest;" parent="qQbIcZdgjEW8v5UKSIZu-123" vertex="1">
          <mxGeometry y="328" width="190" height="26" as="geometry" />
        </mxCell>
        <mxCell id="qQbIcZdgjEW8v5UKSIZu-137" value="..." style="text;align=left;verticalAlign=top;spacingLeft=4;spacingRight=4;overflow=hidden;rotatable=0;points=[[0,0.5],[1,0.5]];portConstraint=eastwest;" parent="qQbIcZdgjEW8v5UKSIZu-123" vertex="1">
          <mxGeometry y="354" width="190" height="26" as="geometry" />
        </mxCell>
        <mxCell id="qQbIcZdgjEW8v5UKSIZu-138" value="1*" style="text;strokeColor=none;align=center;fillColor=none;html=1;verticalAlign=middle;whiteSpace=wrap;rounded=0;" parent="qQbIcZdgjEW8v5UKSIZu-122" vertex="1">
          <mxGeometry y="289" width="60" height="30" as="geometry" />
        </mxCell>
        <mxCell id="qQbIcZdgjEW8v5UKSIZu-139" value="1*" style="text;strokeColor=none;align=center;fillColor=none;html=1;verticalAlign=middle;whiteSpace=wrap;rounded=0;" parent="qQbIcZdgjEW8v5UKSIZu-122" vertex="1">
          <mxGeometry x="71" width="60" height="30" as="geometry" />
        </mxCell>
        <mxCell id="qQbIcZdgjEW8v5UKSIZu-140" value="1*" style="text;strokeColor=none;align=center;fillColor=none;html=1;verticalAlign=middle;whiteSpace=wrap;rounded=0;" parent="qQbIcZdgjEW8v5UKSIZu-122" vertex="1">
          <mxGeometry x="3" y="91" width="60" height="30" as="geometry" />
        </mxCell>
        <mxCell id="qQbIcZdgjEW8v5UKSIZu-141" value="1" style="text;html=1;align=center;verticalAlign=middle;resizable=0;points=[];autosize=1;strokeColor=none;fillColor=none;" parent="WIyWlLk6GJQsqaUBKTNV-1" vertex="1">
          <mxGeometry x="645" y="1328.5" width="25" height="26" as="geometry" />
        </mxCell>
        <mxCell id="qQbIcZdgjEW8v5UKSIZu-142" value="1*" style="text;html=1;align=center;verticalAlign=middle;resizable=0;points=[];autosize=1;strokeColor=none;fillColor=none;" parent="WIyWlLk6GJQsqaUBKTNV-1" vertex="1">
          <mxGeometry x="643" y="1159" width="29" height="26" as="geometry" />
        </mxCell>
        <mxCell id="qQbIcZdgjEW8v5UKSIZu-143" value="1*" style="text;html=1;align=center;verticalAlign=middle;resizable=0;points=[];autosize=1;strokeColor=none;fillColor=none;" parent="WIyWlLk6GJQsqaUBKTNV-1" vertex="1">
          <mxGeometry x="552" y="1266" width="29" height="26" as="geometry" />
        </mxCell>
        <mxCell id="qQbIcZdgjEW8v5UKSIZu-144" value="1" style="text;html=1;align=center;verticalAlign=middle;resizable=0;points=[];autosize=1;strokeColor=none;fillColor=none;" parent="WIyWlLk6GJQsqaUBKTNV-1" vertex="1">
          <mxGeometry x="429" y="1296" width="25" height="26" as="geometry" />
        </mxCell>
        <mxCell id="qQbIcZdgjEW8v5UKSIZu-145" value="1" style="text;html=1;align=center;verticalAlign=middle;resizable=0;points=[];autosize=1;strokeColor=none;fillColor=none;" parent="WIyWlLk6GJQsqaUBKTNV-1" vertex="1">
          <mxGeometry x="411" y="1328.5" width="25" height="26" as="geometry" />
        </mxCell>
        <mxCell id="qQbIcZdgjEW8v5UKSIZu-146" value="1" style="text;html=1;align=center;verticalAlign=middle;resizable=0;points=[];autosize=1;strokeColor=none;fillColor=none;" parent="WIyWlLk6GJQsqaUBKTNV-1" vertex="1">
          <mxGeometry x="405" y="1389" width="25" height="26" as="geometry" />
        </mxCell>
        <mxCell id="qQbIcZdgjEW8v5UKSIZu-147" value="1*" style="text;html=1;align=center;verticalAlign=middle;resizable=0;points=[];autosize=1;strokeColor=none;fillColor=none;" parent="WIyWlLk6GJQsqaUBKTNV-1" vertex="1">
          <mxGeometry x="334" y="905" width="29" height="26" as="geometry" />
        </mxCell>
        <mxCell id="qQbIcZdgjEW8v5UKSIZu-160" value="" style="group" parent="WIyWlLk6GJQsqaUBKTNV-1" vertex="1" connectable="0">
          <mxGeometry x="776" y="902.5" width="182" height="311" as="geometry" />
        </mxCell>
        <mxCell id="qQbIcZdgjEW8v5UKSIZu-162" value="" style="group" parent="qQbIcZdgjEW8v5UKSIZu-160" vertex="1" connectable="0">
          <mxGeometry x="3" y="-8" width="182" height="290" as="geometry" />
        </mxCell>
        <mxCell id="qQbIcZdgjEW8v5UKSIZu-163" value="Hotline Nurse" style="swimlane;fontStyle=0;align=center;verticalAlign=top;childLayout=stackLayout;horizontal=1;startSize=26;horizontalStack=0;resizeParent=1;resizeLast=0;collapsible=1;marginBottom=0;rounded=0;shadow=0;strokeWidth=1;" parent="qQbIcZdgjEW8v5UKSIZu-162" vertex="1">
          <mxGeometry x="22" y="22" width="160" height="268" as="geometry">
            <mxRectangle x="550" y="140" width="160" height="26" as="alternateBounds" />
          </mxGeometry>
        </mxCell>
        <mxCell id="qQbIcZdgjEW8v5UKSIZu-164" value="+ Name: String" style="text;align=left;verticalAlign=top;spacingLeft=4;spacingRight=4;overflow=hidden;rotatable=0;points=[[0,0.5],[1,0.5]];portConstraint=eastwest;" parent="qQbIcZdgjEW8v5UKSIZu-163" vertex="1">
          <mxGeometry y="26" width="160" height="26" as="geometry" />
        </mxCell>
        <mxCell id="qQbIcZdgjEW8v5UKSIZu-165" value="# phoneNumber: String" style="text;align=left;verticalAlign=top;spacingLeft=4;spacingRight=4;overflow=hidden;rotatable=0;points=[[0,0.5],[1,0.5]];portConstraint=eastwest;rounded=0;shadow=0;html=0;" parent="qQbIcZdgjEW8v5UKSIZu-163" vertex="1">
          <mxGeometry y="52" width="160" height="26" as="geometry" />
        </mxCell>
        <mxCell id="qQbIcZdgjEW8v5UKSIZu-166" value="# employeeNumber: Int" style="text;align=left;verticalAlign=top;spacingLeft=4;spacingRight=4;overflow=hidden;rotatable=0;points=[[0,0.5],[1,0.5]];portConstraint=eastwest;rounded=0;shadow=0;html=0;" parent="qQbIcZdgjEW8v5UKSIZu-163" vertex="1">
          <mxGeometry y="78" width="160" height="26" as="geometry" />
        </mxCell>
        <mxCell id="qQbIcZdgjEW8v5UKSIZu-167" value="" style="line;html=1;strokeWidth=1;align=left;verticalAlign=middle;spacingTop=-1;spacingLeft=3;spacingRight=3;rotatable=0;labelPosition=right;points=[];portConstraint=eastwest;" parent="qQbIcZdgjEW8v5UKSIZu-163" vertex="1">
          <mxGeometry y="104" width="160" height="8" as="geometry" />
        </mxCell>
        <mxCell id="qQbIcZdgjEW8v5UKSIZu-168" value="viewRespondPatientCall()" style="text;align=left;verticalAlign=top;spacingLeft=4;spacingRight=4;overflow=hidden;rotatable=0;points=[[0,0.5],[1,0.5]];portConstraint=eastwest;" parent="qQbIcZdgjEW8v5UKSIZu-163" vertex="1">
          <mxGeometry y="112" width="160" height="26" as="geometry" />
        </mxCell>
        <mxCell id="qQbIcZdgjEW8v5UKSIZu-169" value="viewSummaryPatientCall()" style="text;align=left;verticalAlign=top;spacingLeft=4;spacingRight=4;overflow=hidden;rotatable=0;points=[[0,0.5],[1,0.5]];portConstraint=eastwest;" parent="qQbIcZdgjEW8v5UKSIZu-163" vertex="1">
          <mxGeometry y="138" width="160" height="26" as="geometry" />
        </mxCell>
        <mxCell id="qQbIcZdgjEW8v5UKSIZu-170" value="autoLogPatientCall()" style="text;align=left;verticalAlign=top;spacingLeft=4;spacingRight=4;overflow=hidden;rotatable=0;points=[[0,0.5],[1,0.5]];portConstraint=eastwest;" parent="qQbIcZdgjEW8v5UKSIZu-163" vertex="1">
          <mxGeometry y="164" width="160" height="26" as="geometry" />
        </mxCell>
        <mxCell id="qQbIcZdgjEW8v5UKSIZu-171" value="sendPatientCallTranscript()" style="text;align=left;verticalAlign=top;spacingLeft=4;spacingRight=4;overflow=hidden;rotatable=0;points=[[0,0.5],[1,0.5]];portConstraint=eastwest;" parent="qQbIcZdgjEW8v5UKSIZu-163" vertex="1">
          <mxGeometry y="190" width="160" height="26" as="geometry" />
        </mxCell>
        <mxCell id="qQbIcZdgjEW8v5UKSIZu-172" value="directPatientAfterCall()" style="text;align=left;verticalAlign=top;spacingLeft=4;spacingRight=4;overflow=hidden;rotatable=0;points=[[0,0.5],[1,0.5]];portConstraint=eastwest;" parent="qQbIcZdgjEW8v5UKSIZu-163" vertex="1">
          <mxGeometry y="216" width="160" height="26" as="geometry" />
        </mxCell>
        <mxCell id="qQbIcZdgjEW8v5UKSIZu-173" value="..." style="text;align=left;verticalAlign=top;spacingLeft=4;spacingRight=4;overflow=hidden;rotatable=0;points=[[0,0.5],[1,0.5]];portConstraint=eastwest;" parent="qQbIcZdgjEW8v5UKSIZu-163" vertex="1">
          <mxGeometry y="242" width="160" height="26" as="geometry" />
        </mxCell>
        <mxCell id="qQbIcZdgjEW8v5UKSIZu-174" value="1*" style="text;strokeColor=none;align=center;fillColor=none;html=1;verticalAlign=middle;whiteSpace=wrap;rounded=0;" parent="qQbIcZdgjEW8v5UKSIZu-162" vertex="1">
          <mxGeometry x="47" width="60" height="30" as="geometry" />
        </mxCell>
        <mxCell id="qQbIcZdgjEW8v5UKSIZu-175" value="1*" style="text;html=1;align=center;verticalAlign=middle;resizable=0;points=[];autosize=1;strokeColor=none;fillColor=none;" parent="qQbIcZdgjEW8v5UKSIZu-162" vertex="1">
          <mxGeometry x="-3" y="254" width="29" height="26" as="geometry" />
        </mxCell>
        <mxCell id="qQbIcZdgjEW8v5UKSIZu-176" value="1" style="text;html=1;align=center;verticalAlign=middle;resizable=0;points=[];autosize=1;strokeColor=none;fillColor=none;" parent="qQbIcZdgjEW8v5UKSIZu-162" vertex="1">
          <mxGeometry x="-7" y="69" width="25" height="26" as="geometry" />
        </mxCell>
        <mxCell id="qQbIcZdgjEW8v5UKSIZu-183" value="1" style="text;html=1;align=center;verticalAlign=middle;resizable=0;points=[];autosize=1;strokeColor=none;fillColor=none;" parent="WIyWlLk6GJQsqaUBKTNV-1" vertex="1">
          <mxGeometry x="776" y="803" width="25" height="26" as="geometry" />
        </mxCell>
      </root>
    </mxGraphModel>
  </diagram>
</mxfile>
